<mxfile host="app.diagrams.net" agent="Mozilla/5.0 (Windows NT 10.0; Win64; x64) AppleWebKit/537.36 (KHTML, like Gecko) Chrome/138.0.0.0 Safari/537.36 OPR/122.0.0.0" version="28.2.8">
  <diagram name="PÃ¡gina-1" id="_yC73GnlDLhrE2uc2q04">
    <mxGraphModel dx="2330" dy="1173" grid="1" gridSize="10" guides="1" tooltips="1" connect="1" arrows="1" fold="1" page="1" pageScale="1" pageWidth="827" pageHeight="1169" math="0" shadow="0">
      <root>
        <mxCell id="0" />
        <mxCell id="1" parent="0" />
        <mxCell id="zbe0re6iq-kR-Y6KTi55-1" value="&lt;p style=&quot;margin:0px;margin-top:4px;text-align:center;&quot;&gt;&lt;i&gt;&amp;lt;&amp;lt;Interface&amp;gt;&amp;gt;&lt;/i&gt;&lt;br&gt;&lt;b&gt;Interface&lt;/b&gt;&lt;/p&gt;&lt;hr size=&quot;1&quot; style=&quot;border-style:solid;&quot;&gt;&lt;p style=&quot;margin:0px;margin-left:4px;&quot;&gt;&lt;/p&gt;&lt;p style=&quot;margin:0px;margin-left:4px;&quot;&gt;+ method1(Type): Type&lt;br&gt;+ method2(Type, Type): Type&lt;/p&gt;" style="verticalAlign=top;align=left;overflow=fill;html=1;whiteSpace=wrap;" vertex="1" parent="1">
          <mxGeometry x="595" y="200" width="190" height="90" as="geometry" />
        </mxCell>
        <mxCell id="zbe0re6iq-kR-Y6KTi55-2" value="&lt;p style=&quot;margin:0px;margin-top:4px;text-align:center;&quot;&gt;&lt;b&gt;&amp;lt;Abstract Class&amp;gt;&lt;/b&gt;&lt;/p&gt;&lt;p style=&quot;margin:0px;margin-top:4px;text-align:center;&quot;&gt;&lt;b&gt;Class&lt;/b&gt;&lt;/p&gt;&lt;hr size=&quot;1&quot; style=&quot;border-style:solid;&quot;&gt;&lt;p style=&quot;margin:0px;margin-left:4px;&quot;&gt;+ field: Type&lt;/p&gt;&lt;hr size=&quot;1&quot; style=&quot;border-style:solid;&quot;&gt;&lt;p style=&quot;margin:0px;margin-left:4px;&quot;&gt;+ method(): Type&lt;/p&gt;" style="verticalAlign=top;align=left;overflow=fill;html=1;whiteSpace=wrap;" vertex="1" parent="1">
          <mxGeometry x="290" y="200" width="160" height="90" as="geometry" />
        </mxCell>
        <mxCell id="zbe0re6iq-kR-Y6KTi55-3" value="&lt;p style=&quot;margin:0px;margin-top:4px;text-align:center;&quot;&gt;&lt;b&gt;Class&lt;/b&gt;&lt;/p&gt;&lt;hr size=&quot;1&quot; style=&quot;border-style:solid;&quot;/&gt;&lt;p style=&quot;margin:0px;margin-left:4px;&quot;&gt;+ field: Type&lt;/p&gt;&lt;hr size=&quot;1&quot; style=&quot;border-style:solid;&quot;/&gt;&lt;p style=&quot;margin:0px;margin-left:4px;&quot;&gt;+ method(): Type&lt;/p&gt;" style="verticalAlign=top;align=left;overflow=fill;html=1;whiteSpace=wrap;" vertex="1" parent="1">
          <mxGeometry x="610" y="380" width="160" height="90" as="geometry" />
        </mxCell>
        <mxCell id="zbe0re6iq-kR-Y6KTi55-5" value="&lt;p style=&quot;margin:0px;margin-top:4px;text-align:center;&quot;&gt;&lt;b&gt;Class&lt;/b&gt;&lt;/p&gt;&lt;hr size=&quot;1&quot; style=&quot;border-style:solid;&quot;/&gt;&lt;p style=&quot;margin:0px;margin-left:4px;&quot;&gt;+ field: Type&lt;/p&gt;&lt;hr size=&quot;1&quot; style=&quot;border-style:solid;&quot;/&gt;&lt;p style=&quot;margin:0px;margin-left:4px;&quot;&gt;+ method(): Type&lt;/p&gt;" style="verticalAlign=top;align=left;overflow=fill;html=1;whiteSpace=wrap;" vertex="1" parent="1">
          <mxGeometry x="290" y="380" width="160" height="90" as="geometry" />
        </mxCell>
        <mxCell id="zbe0re6iq-kR-Y6KTi55-6" value="1" style="endArrow=open;html=1;endSize=12;startArrow=diamondThin;startSize=14;startFill=1;edgeStyle=orthogonalEdgeStyle;align=left;verticalAlign=bottom;rounded=0;" edge="1" parent="1">
          <mxGeometry x="-1" y="3" relative="1" as="geometry">
            <mxPoint x="450" y="420" as="sourcePoint" />
            <mxPoint x="610" y="420" as="targetPoint" />
          </mxGeometry>
        </mxCell>
        <mxCell id="zbe0re6iq-kR-Y6KTi55-7" value="" style="endArrow=block;dashed=1;endFill=0;endSize=12;html=1;rounded=0;entryX=0.5;entryY=1;entryDx=0;entryDy=0;exitX=0.5;exitY=0;exitDx=0;exitDy=0;" edge="1" parent="1" source="zbe0re6iq-kR-Y6KTi55-3" target="zbe0re6iq-kR-Y6KTi55-1">
          <mxGeometry width="160" relative="1" as="geometry">
            <mxPoint x="684.5" y="369" as="sourcePoint" />
            <mxPoint x="684.5" y="330" as="targetPoint" />
            <Array as="points" />
          </mxGeometry>
        </mxCell>
        <mxCell id="zbe0re6iq-kR-Y6KTi55-8" value="Extends" style="endArrow=block;endSize=16;endFill=0;html=1;rounded=0;entryX=0.5;entryY=1;entryDx=0;entryDy=0;exitX=0.5;exitY=0;exitDx=0;exitDy=0;" edge="1" parent="1" source="zbe0re6iq-kR-Y6KTi55-5" target="zbe0re6iq-kR-Y6KTi55-2">
          <mxGeometry width="160" relative="1" as="geometry">
            <mxPoint x="350" y="350" as="sourcePoint" />
            <mxPoint x="510" y="350" as="targetPoint" />
          </mxGeometry>
        </mxCell>
        <mxCell id="zbe0re6iq-kR-Y6KTi55-9" value="*" style="text;html=1;whiteSpace=wrap;strokeColor=none;fillColor=none;align=center;verticalAlign=middle;rounded=0;" vertex="1" parent="1">
          <mxGeometry x="564" y="390" width="60" height="30" as="geometry" />
        </mxCell>
        <mxCell id="zbe0re6iq-kR-Y6KTi55-10" value="&lt;p style=&quot;margin:0px;margin-top:4px;text-align:center;&quot;&gt;&lt;b&gt;Class&lt;/b&gt;&lt;/p&gt;&lt;hr size=&quot;1&quot; style=&quot;border-style:solid;&quot;/&gt;&lt;p style=&quot;margin:0px;margin-left:4px;&quot;&gt;+ field: Type&lt;/p&gt;&lt;hr size=&quot;1&quot; style=&quot;border-style:solid;&quot;/&gt;&lt;p style=&quot;margin:0px;margin-left:4px;&quot;&gt;+ method(): Type&lt;/p&gt;" style="verticalAlign=top;align=left;overflow=fill;html=1;whiteSpace=wrap;" vertex="1" parent="1">
          <mxGeometry x="290" y="530" width="160" height="90" as="geometry" />
        </mxCell>
        <mxCell id="zbe0re6iq-kR-Y6KTi55-12" value="" style="endArrow=diamondThin;endFill=0;endSize=24;html=1;rounded=0;entryX=0.5;entryY=1;entryDx=0;entryDy=0;exitX=0.5;exitY=0;exitDx=0;exitDy=0;" edge="1" parent="1" source="zbe0re6iq-kR-Y6KTi55-10" target="zbe0re6iq-kR-Y6KTi55-5">
          <mxGeometry width="160" relative="1" as="geometry">
            <mxPoint x="400" y="490" as="sourcePoint" />
            <mxPoint x="560" y="490" as="targetPoint" />
          </mxGeometry>
        </mxCell>
        <mxCell id="zbe0re6iq-kR-Y6KTi55-13" value="&lt;p style=&quot;margin:0px;margin-top:4px;text-align:center;&quot;&gt;&lt;b&gt;Pokemon&lt;/b&gt;&lt;/p&gt;&lt;hr size=&quot;1&quot; style=&quot;border-style:solid;&quot;&gt;&lt;p style=&quot;margin:0px;margin-left:4px;&quot;&gt;&lt;code style=&quot;background-color: transparent; color: light-dark(rgb(0, 0, 0), rgb(255, 255, 255));&quot;&gt;#vida: Number&lt;/code&gt;&lt;span style=&quot;background-color: transparent; color: light-dark(rgb(0, 0, 0), rgb(255, 255, 255));&quot;&gt;&amp;nbsp;&lt;/span&gt;&lt;/p&gt;&lt;p style=&quot;margin:0px;margin-left:4px;&quot;&gt;&lt;code style=&quot;background-color: transparent; color: light-dark(rgb(0, 0, 0), rgb(255, 255, 255));&quot;&gt;+ nome: String&lt;/code&gt;&lt;span style=&quot;background-color: transparent; color: light-dark(rgb(0, 0, 0), rgb(255, 255, 255));&quot;&gt;&amp;nbsp;&lt;/span&gt;&lt;/p&gt;&lt;p style=&quot;margin:0px;margin-left:4px;&quot;&gt;&lt;code style=&quot;background-color: transparent; color: light-dark(rgb(0, 0, 0), rgb(255, 255, 255));&quot;&gt;+ tipo: String&lt;/code&gt;&lt;/p&gt;&lt;hr size=&quot;1&quot; style=&quot;border-style:solid;&quot;&gt;&lt;p style=&quot;margin:0px;margin-left:4px;&quot;&gt;&lt;code&gt;+ constructor(nome, tipo, vidaInicial)&lt;/code&gt;&lt;br&gt;&lt;code&gt;+ getVida(): Number&lt;/code&gt;&lt;br&gt;&lt;code&gt;+ receberDano(dano: Number)&lt;/code&gt;&lt;br&gt;&lt;code&gt;+ atacar(alvo: Pokemon)&lt;/code&gt;&lt;/p&gt;" style="verticalAlign=top;align=left;overflow=fill;html=1;whiteSpace=wrap;" vertex="1" parent="1">
          <mxGeometry x="140" y="1200" width="200" height="180" as="geometry" />
        </mxCell>
        <mxCell id="zbe0re6iq-kR-Y6KTi55-15" value="&lt;p style=&quot;margin:0px;margin-top:4px;text-align:center;&quot;&gt;&lt;b&gt;PokemonFogo&lt;/b&gt;&lt;/p&gt;&lt;hr size=&quot;1&quot; style=&quot;border-style:solid;&quot;&gt;&lt;p style=&quot;margin:0px;margin-left:4px;&quot;&gt;+ bonusAtaque: Number&lt;/p&gt;&lt;hr size=&quot;1&quot; style=&quot;border-style:solid;&quot;&gt;&lt;p style=&quot;margin:0px;margin-left:4px;&quot;&gt;&lt;code&gt;+ constructor(nome, vidaInicial, bonus)&lt;/code&gt;&lt;br&gt;&lt;code&gt;+ atacar(alvo: Pokemon)&lt;/code&gt;&lt;/p&gt;" style="verticalAlign=top;align=left;overflow=fill;html=1;whiteSpace=wrap;" vertex="1" parent="1">
          <mxGeometry x="440" y="1140" width="270" height="120" as="geometry" />
        </mxCell>
        <mxCell id="zbe0re6iq-kR-Y6KTi55-16" value="&lt;p style=&quot;margin:0px;margin-top:4px;text-align:center;&quot;&gt;&lt;b&gt;PokemonAgua&lt;/b&gt;&lt;/p&gt;&lt;hr size=&quot;1&quot; style=&quot;border-style:solid;&quot;&gt;&lt;p style=&quot;margin:0px;margin-left:4px;&quot;&gt;- #curaBase: Number&lt;/p&gt;&lt;hr size=&quot;1&quot; style=&quot;border-style:solid;&quot;&gt;&lt;p style=&quot;margin:0px;margin-left:4px;&quot;&gt;&lt;code&gt;+ constructor(nome, vidaInicial, curaBase)&lt;/code&gt;&lt;br/&gt;&lt;code&gt;+ atacar(alvo: Pokemon)&lt;/code&gt;&lt;/p&gt;" style="verticalAlign=top;align=left;overflow=fill;html=1;whiteSpace=wrap;" vertex="1" parent="1">
          <mxGeometry x="444" y="1340" width="290" height="110" as="geometry" />
        </mxCell>
        <mxCell id="zbe0re6iq-kR-Y6KTi55-17" value="Extends" style="endArrow=block;endSize=16;endFill=0;html=1;rounded=0;exitX=0;exitY=0.5;exitDx=0;exitDy=0;entryX=1;entryY=0.25;entryDx=0;entryDy=0;" edge="1" parent="1" source="zbe0re6iq-kR-Y6KTi55-15" target="zbe0re6iq-kR-Y6KTi55-13">
          <mxGeometry width="160" relative="1" as="geometry">
            <mxPoint x="330" y="1540" as="sourcePoint" />
            <mxPoint x="350" y="1310" as="targetPoint" />
          </mxGeometry>
        </mxCell>
        <mxCell id="zbe0re6iq-kR-Y6KTi55-18" value="Extends" style="endArrow=block;endSize=16;endFill=0;html=1;rounded=0;exitX=0;exitY=0.5;exitDx=0;exitDy=0;entryX=1;entryY=0.75;entryDx=0;entryDy=0;" edge="1" parent="1" source="zbe0re6iq-kR-Y6KTi55-16" target="zbe0re6iq-kR-Y6KTi55-13">
          <mxGeometry width="160" relative="1" as="geometry">
            <mxPoint x="474" y="1310" as="sourcePoint" />
            <mxPoint x="354" y="1335" as="targetPoint" />
          </mxGeometry>
        </mxCell>
        <mxCell id="zbe0re6iq-kR-Y6KTi55-19" value="&lt;font style=&quot;font-size: 24px;&quot;&gt;ExercÃ­cio 1:&lt;/font&gt;" style="text;html=1;whiteSpace=wrap;strokeColor=none;fillColor=none;align=center;verticalAlign=middle;rounded=0;" vertex="1" parent="1">
          <mxGeometry x="70" y="1110" width="150" height="30" as="geometry" />
        </mxCell>
        <mxCell id="zbe0re6iq-kR-Y6KTi55-20" value="&lt;font style=&quot;font-size: 24px;&quot;&gt;ExercÃ­cio 2:&lt;/font&gt;" style="text;html=1;whiteSpace=wrap;strokeColor=none;fillColor=none;align=center;verticalAlign=middle;rounded=0;" vertex="1" parent="1">
          <mxGeometry x="50" y="1570" width="150" height="30" as="geometry" />
        </mxCell>
        <mxCell id="zbe0re6iq-kR-Y6KTi55-21" value="&lt;p style=&quot;margin:0px;margin-top:4px;text-align:center;&quot;&gt;&lt;b&gt;ODM_gear&lt;/b&gt;&lt;/p&gt;&lt;hr size=&quot;1&quot; style=&quot;border-style:solid;&quot;&gt;&lt;p style=&quot;margin:0px;margin-left:4px;&quot;&gt;&lt;code style=&quot;background-color: transparent; color: light-dark(rgb(0, 0, 0), rgb(255, 255, 255));&quot;&gt;&lt;code&gt;+ modelo: String&lt;/code&gt;&lt;br/&gt;&lt;code&gt;- #gasRestante: Number&lt;/code&gt;&lt;/code&gt;&lt;/p&gt;&lt;hr size=&quot;1&quot; style=&quot;border-style:solid;&quot;&gt;&lt;p style=&quot;margin:0px;margin-left:4px;&quot;&gt;&lt;code&gt;+ constructor(modelo)&lt;/code&gt;&lt;br/&gt;&lt;code&gt;+ usarGas(quantidade: Number)&lt;/code&gt;&lt;br/&gt;&lt;code&gt;+ getGas(): Number&lt;/code&gt;&lt;/p&gt;" style="verticalAlign=top;align=left;overflow=fill;html=1;whiteSpace=wrap;" vertex="1" parent="1">
          <mxGeometry x="520" y="1840" width="200" height="140" as="geometry" />
        </mxCell>
        <mxCell id="zbe0re6iq-kR-Y6KTi55-22" value="&lt;p style=&quot;margin:0px;margin-top:4px;text-align:center;&quot;&gt;&lt;b&gt;Soldado&lt;/b&gt;&lt;/p&gt;&lt;hr size=&quot;1&quot; style=&quot;border-style:solid;&quot;&gt;&lt;p style=&quot;margin:0px;margin-left:4px;&quot;&gt;&lt;code style=&quot;background-color: transparent; color: light-dark(rgb(0, 0, 0), rgb(255, 255, 255));&quot;&gt;&lt;code&gt;+ nome: String&lt;/code&gt;&lt;br&gt;&lt;code&gt;- #gear: ODM_Gear&lt;/code&gt;&lt;/code&gt;&lt;/p&gt;&lt;hr size=&quot;1&quot; style=&quot;border-style:solid;&quot;&gt;&lt;p style=&quot;margin:0px;margin-left:4px;&quot;&gt;&lt;code&gt;+ constructor(nome, modeloGear)&lt;/code&gt;&lt;br&gt;&lt;code&gt;+ explorarTerritorio()&lt;/code&gt;&lt;br&gt;&lt;code&gt;+ verificarEquipamento(): String&lt;/code&gt;&lt;/p&gt;" style="verticalAlign=top;align=left;overflow=fill;html=1;whiteSpace=wrap;" vertex="1" parent="1">
          <mxGeometry x="420" y="1580" width="230" height="180" as="geometry" />
        </mxCell>
        <mxCell id="zbe0re6iq-kR-Y6KTi55-26" value="&lt;p style=&quot;margin:0px;margin-top:4px;text-align:center;&quot;&gt;&lt;i&gt;&amp;lt;&amp;lt;Interface&amp;gt;&amp;gt;&lt;/i&gt;&lt;br&gt;&lt;b&gt;IExplorador&lt;/b&gt;&lt;/p&gt;&lt;hr size=&quot;1&quot; style=&quot;border-style:solid;&quot;&gt;&lt;p style=&quot;margin:0px;margin-left:4px;&quot;&gt;&lt;/p&gt;&lt;p style=&quot;margin:0px;margin-left:4px;&quot;&gt;&lt;code&gt;+ explorarTerritorio(): String&lt;/code&gt;&lt;/p&gt;" style="verticalAlign=top;align=left;overflow=fill;html=1;whiteSpace=wrap;" vertex="1" parent="1">
          <mxGeometry x="170" y="1640" width="190" height="90" as="geometry" />
        </mxCell>
        <mxCell id="zbe0re6iq-kR-Y6KTi55-27" value="&lt;p style=&quot;margin:0px;margin-top:4px;text-align:center;&quot;&gt;&lt;b&gt;EsquadrÃ£o&lt;/b&gt;&lt;/p&gt;&lt;hr size=&quot;1&quot; style=&quot;border-style:solid;&quot;&gt;&lt;p style=&quot;margin:0px;margin-left:4px;&quot;&gt;&lt;code&gt;+ explorarTerritorio(): String&lt;/code&gt;&lt;/p&gt;&lt;hr size=&quot;1&quot; style=&quot;border-style:solid;&quot;&gt;&lt;p style=&quot;margin:0px;margin-left:4px;&quot;&gt;&lt;code&gt;+ constructor(lider, membrosIniciais)&lt;/code&gt;&lt;br/&gt;&lt;code&gt;+ adicionarMembro(soldado: Soldado)&lt;/code&gt;&lt;br/&gt;&lt;code&gt;+ relatarStatus(): Array&amp;lt;String&amp;gt;&lt;/code&gt;&lt;/p&gt;" style="verticalAlign=top;align=left;overflow=fill;html=1;whiteSpace=wrap;" vertex="1" parent="1">
          <mxGeometry x="204" y="1820" width="240" height="140" as="geometry" />
        </mxCell>
        <mxCell id="zbe0re6iq-kR-Y6KTi55-28" value="" style="endArrow=block;dashed=1;endFill=0;endSize=12;html=1;rounded=0;entryX=0.5;entryY=1;entryDx=0;entryDy=0;exitX=0.25;exitY=0;exitDx=0;exitDy=0;" edge="1" parent="1" source="zbe0re6iq-kR-Y6KTi55-27" target="zbe0re6iq-kR-Y6KTi55-26">
          <mxGeometry width="160" relative="1" as="geometry">
            <mxPoint x="330" y="2040" as="sourcePoint" />
            <mxPoint x="330" y="1950" as="targetPoint" />
            <Array as="points" />
          </mxGeometry>
        </mxCell>
        <mxCell id="zbe0re6iq-kR-Y6KTi55-29" style="edgeStyle=orthogonalEdgeStyle;rounded=0;orthogonalLoop=1;jettySize=auto;html=1;exitX=0.5;exitY=1;exitDx=0;exitDy=0;" edge="1" parent="1" source="zbe0re6iq-kR-Y6KTi55-22" target="zbe0re6iq-kR-Y6KTi55-22">
          <mxGeometry relative="1" as="geometry" />
        </mxCell>
        <mxCell id="zbe0re6iq-kR-Y6KTi55-30" value="" style="endArrow=diamondThin;endFill=0;endSize=24;html=1;rounded=0;exitX=0.25;exitY=1;exitDx=0;exitDy=0;" edge="1" parent="1" source="zbe0re6iq-kR-Y6KTi55-22" target="zbe0re6iq-kR-Y6KTi55-27">
          <mxGeometry width="160" relative="1" as="geometry">
            <mxPoint x="520" y="1810" as="sourcePoint" />
            <mxPoint x="680" y="1810" as="targetPoint" />
          </mxGeometry>
        </mxCell>
        <mxCell id="zbe0re6iq-kR-Y6KTi55-31" value="" style="endArrow=diamondThin;endFill=1;endSize=24;html=1;rounded=0;entryX=0.25;entryY=0;entryDx=0;entryDy=0;exitX=0.75;exitY=1;exitDx=0;exitDy=0;" edge="1" parent="1" source="zbe0re6iq-kR-Y6KTi55-22" target="zbe0re6iq-kR-Y6KTi55-21">
          <mxGeometry width="160" relative="1" as="geometry">
            <mxPoint x="500" y="1790" as="sourcePoint" />
            <mxPoint x="660" y="1790" as="targetPoint" />
          </mxGeometry>
        </mxCell>
        <mxCell id="zbe0re6iq-kR-Y6KTi55-32" value="&lt;font style=&quot;font-size: 24px;&quot;&gt;ExercÃ­cio 4:&lt;/font&gt;" style="text;html=1;whiteSpace=wrap;strokeColor=none;fillColor=none;align=center;verticalAlign=middle;rounded=0;" vertex="1" parent="1">
          <mxGeometry x="870" y="1550" width="150" height="30" as="geometry" />
        </mxCell>
        <mxCell id="zbe0re6iq-kR-Y6KTi55-33" value="&lt;p style=&quot;margin:0px;margin-top:4px;text-align:center;&quot;&gt;&lt;b&gt;Hunter&lt;/b&gt;&lt;/p&gt;&lt;hr size=&quot;1&quot; style=&quot;border-style:solid;&quot;&gt;&lt;p style=&quot;margin:0px;margin-left:4px;&quot;&gt;&lt;code style=&quot;background-color: transparent; color: light-dark(rgb(0, 0, 0), rgb(255, 255, 255));&quot;&gt;&lt;code&gt;+ nome: String&lt;/code&gt;&lt;br&gt;&lt;code&gt;+ nen: String&lt;/code&gt;&lt;/code&gt;&lt;/p&gt;&lt;hr size=&quot;1&quot; style=&quot;border-style:solid;&quot;&gt;&lt;p style=&quot;margin:0px;margin-left:4px;&quot;&gt;&lt;code&gt;+ constructor(nome, nen)&lt;/code&gt;&lt;/p&gt;" style="verticalAlign=top;align=left;overflow=fill;html=1;whiteSpace=wrap;" vertex="1" parent="1">
          <mxGeometry x="1050" y="1599" width="200" height="101" as="geometry" />
        </mxCell>
        <mxCell id="zbe0re6iq-kR-Y6KTi55-35" value="&lt;p style=&quot;margin:0px;margin-top:4px;text-align:center;&quot;&gt;&lt;b&gt;Especialista&lt;/b&gt;&lt;/p&gt;&lt;hr size=&quot;1&quot; style=&quot;border-style:solid;&quot;&gt;&lt;p style=&quot;margin:0px;margin-left:4px;&quot;&gt;+ localizacao: String&lt;/p&gt;&lt;hr size=&quot;1&quot; style=&quot;border-style:solid;&quot;&gt;&lt;p style=&quot;margin:0px;margin-left:4px;&quot;&gt;&lt;code&gt;+ constructor(nome, local)&lt;/code&gt;&lt;br/&gt;&lt;code&gt;+ rastrearLocal(lat, long)&lt;/code&gt;&lt;/p&gt;" style="verticalAlign=top;align=left;overflow=fill;html=1;whiteSpace=wrap;" vertex="1" parent="1">
          <mxGeometry x="1410" y="1599" width="200" height="101" as="geometry" />
        </mxCell>
        <mxCell id="zbe0re6iq-kR-Y6KTi55-36" value="&lt;p style=&quot;margin:0px;margin-top:4px;text-align:center;&quot;&gt;&lt;b&gt;BatalhÃ£o&lt;/b&gt;&lt;/p&gt;&lt;hr size=&quot;1&quot; style=&quot;border-style:solid;&quot;&gt;&lt;p style=&quot;margin:0px;margin-left:4px;&quot;&gt;#hunters: Set&amp;lt;Hunter&amp;gt;&lt;/p&gt;&lt;hr size=&quot;1&quot; style=&quot;border-style:solid;&quot;&gt;&lt;p style=&quot;margin:0px;margin-left:4px;&quot;&gt;&lt;code&gt;+ constructor&lt;/code&gt;&lt;br&gt;&lt;code&gt;+ adicionarHunter(hunter: Hunter)&lt;/code&gt;&lt;br&gt;&lt;code&gt;+ getNumHunters(): Number&lt;/code&gt;&lt;br&gt;&lt;code&gt;+ iniciarRastreamento(lat, long): Array&amp;lt;String&amp;gt;&lt;/code&gt;&lt;/p&gt;" style="verticalAlign=top;align=left;overflow=fill;html=1;whiteSpace=wrap;" vertex="1" parent="1">
          <mxGeometry x="1025" y="1805" width="250" height="160" as="geometry" />
        </mxCell>
        <mxCell id="zbe0re6iq-kR-Y6KTi55-37" value="&lt;p style=&quot;margin:0px;margin-top:4px;text-align:center;&quot;&gt;&lt;i&gt;&amp;lt;&amp;lt;Interface&amp;gt;&amp;gt;&lt;/i&gt;&lt;br&gt;&lt;b&gt;IRastreÃ¡vel&lt;/b&gt;&lt;/p&gt;&lt;hr size=&quot;1&quot; style=&quot;border-style:solid;&quot;&gt;&lt;p style=&quot;margin:0px;margin-left:4px;&quot;&gt;&lt;/p&gt;&lt;p style=&quot;margin:0px;margin-left:4px;&quot;&gt;+ rastrearLocal(latitude: String, longitude: String): String&lt;/p&gt;" style="verticalAlign=top;align=left;overflow=fill;html=1;whiteSpace=wrap;" vertex="1" parent="1">
          <mxGeometry x="1400" y="1805" width="190" height="90" as="geometry" />
        </mxCell>
        <mxCell id="zbe0re6iq-kR-Y6KTi55-38" value="Extends" style="endArrow=block;endSize=16;endFill=0;html=1;rounded=0;exitX=0;exitY=0.5;exitDx=0;exitDy=0;entryX=1;entryY=0.5;entryDx=0;entryDy=0;" edge="1" parent="1" source="zbe0re6iq-kR-Y6KTi55-35" target="zbe0re6iq-kR-Y6KTi55-33">
          <mxGeometry width="160" relative="1" as="geometry">
            <mxPoint x="1340" y="1640" as="sourcePoint" />
            <mxPoint x="1240" y="1685" as="targetPoint" />
          </mxGeometry>
        </mxCell>
        <mxCell id="zbe0re6iq-kR-Y6KTi55-39" value="" style="endArrow=block;dashed=1;endFill=0;endSize=12;html=1;rounded=0;entryX=1;entryY=1;entryDx=0;entryDy=0;exitX=0;exitY=0;exitDx=0;exitDy=0;" edge="1" parent="1" source="zbe0re6iq-kR-Y6KTi55-37" target="zbe0re6iq-kR-Y6KTi55-33">
          <mxGeometry width="160" relative="1" as="geometry">
            <mxPoint x="1207" y="2031" as="sourcePoint" />
            <mxPoint x="1110" y="2030" as="targetPoint" />
            <Array as="points" />
          </mxGeometry>
        </mxCell>
        <mxCell id="zbe0re6iq-kR-Y6KTi55-40" value="" style="endArrow=diamondThin;endFill=0;endSize=24;html=1;rounded=0;entryX=0.5;entryY=0;entryDx=0;entryDy=0;" edge="1" parent="1" target="zbe0re6iq-kR-Y6KTi55-36">
          <mxGeometry width="160" relative="1" as="geometry">
            <mxPoint x="1150" y="1700" as="sourcePoint" />
            <mxPoint x="1001" y="1840" as="targetPoint" />
          </mxGeometry>
        </mxCell>
        <mxCell id="zbe0re6iq-kR-Y6KTi55-41" value="&lt;font style=&quot;font-size: 24px;&quot;&gt;ExercÃ­cio 3:&lt;/font&gt;" style="text;html=1;whiteSpace=wrap;strokeColor=none;fillColor=none;align=center;verticalAlign=middle;rounded=0;" vertex="1" parent="1">
          <mxGeometry x="910" y="1100" width="150" height="30" as="geometry" />
        </mxCell>
        <mxCell id="zbe0re6iq-kR-Y6KTi55-42" value="&lt;p style=&quot;margin:0px;margin-top:4px;text-align:center;&quot;&gt;&lt;b&gt;Criatura&lt;/b&gt;&lt;/p&gt;&lt;hr size=&quot;1&quot; style=&quot;border-style:solid;&quot;&gt;&lt;p style=&quot;margin:0px;margin-left:4px;&quot;&gt;&lt;code&gt;+ nome: String&lt;/code&gt;&lt;br&gt;&lt;code&gt;+ perigosa: Boolean&lt;/code&gt;&lt;/p&gt;&lt;hr size=&quot;1&quot; style=&quot;border-style:solid;&quot;&gt;&lt;p style=&quot;margin:0px;margin-left:4px;&quot;&gt;+ constructor(nome, perigosa)&lt;/p&gt;" style="verticalAlign=top;align=left;overflow=fill;html=1;whiteSpace=wrap;" vertex="1" parent="1">
          <mxGeometry x="1380" y="1184.5" width="200" height="101" as="geometry" />
        </mxCell>
        <mxCell id="zbe0re6iq-kR-Y6KTi55-44" value="&lt;p style=&quot;margin:0px;margin-top:4px;text-align:center;&quot;&gt;&lt;b&gt;DiÃ¡rio&lt;/b&gt;&lt;/p&gt;&lt;hr size=&quot;1&quot; style=&quot;border-style:solid;&quot;&gt;&lt;p style=&quot;margin:0px;margin-left:4px;&quot;&gt;&lt;code&gt;#autorSecreto: String&lt;/code&gt;&lt;br&gt;&lt;code&gt;- enigmas: Map&amp;lt;Number, String&amp;gt;&lt;/code&gt;&lt;br&gt;&lt;code&gt;- criaturasAvistadas: Array&amp;lt;Criatura&amp;gt;&lt;/code&gt;&lt;/p&gt;&lt;hr size=&quot;1&quot; style=&quot;border-style:solid;&quot;&gt;&lt;p style=&quot;margin:0px;margin-left:4px;&quot;&gt;&lt;code&gt;+ constructor(autor)&lt;/code&gt;&lt;br&gt;&lt;code&gt;+ getAutor(): String&lt;/code&gt;&lt;br&gt;&lt;code&gt;+ adicionarEnigma(num: Number, enigma: String)&lt;/code&gt;&lt;br&gt;&lt;code&gt;+ decodificar(chave: String, num: Number): String&lt;/code&gt;&lt;/p&gt;" style="verticalAlign=top;align=left;overflow=fill;html=1;whiteSpace=wrap;" vertex="1" parent="1">
          <mxGeometry x="930" y="1150" width="350" height="170" as="geometry" />
        </mxCell>
        <mxCell id="zbe0re6iq-kR-Y6KTi55-45" value="&lt;p style=&quot;margin:0px;margin-top:4px;text-align:center;&quot;&gt;&lt;b&gt;CabanaMistÃ©rio&lt;/b&gt;&lt;/p&gt;&lt;hr size=&quot;1&quot; style=&quot;border-style:solid;&quot;&gt;&lt;p style=&quot;margin:0px;margin-left:4px;&quot;&gt;&lt;code&gt;+ diario: Diario&lt;/code&gt; (AgregaÃ§Ã£o)&lt;br/&gt;&lt;code&gt;+ visitantes: Array&amp;lt;String&amp;gt;&lt;/code&gt;&lt;/p&gt;&lt;hr size=&quot;1&quot; style=&quot;border-style:solid;&quot;&gt;&lt;p style=&quot;margin:0px;margin-left:4px;&quot;&gt;&lt;code&gt;+ constructor(diario)&lt;/code&gt;&lt;br/&gt;&lt;code&gt;+ listarCriaturasPerigosas(): Array&amp;lt;Criatura&amp;gt;&lt;/code&gt;&lt;/p&gt;" style="verticalAlign=top;align=left;overflow=fill;html=1;whiteSpace=wrap;" vertex="1" parent="1">
          <mxGeometry x="930" y="1370" width="350" height="120" as="geometry" />
        </mxCell>
        <mxCell id="zbe0re6iq-kR-Y6KTi55-46" value="" style="endArrow=diamondThin;endFill=0;endSize=24;html=1;rounded=0;exitX=0;exitY=0.5;exitDx=0;exitDy=0;entryX=1;entryY=0.5;entryDx=0;entryDy=0;" edge="1" parent="1" source="zbe0re6iq-kR-Y6KTi55-42" target="zbe0re6iq-kR-Y6KTi55-44">
          <mxGeometry width="160" relative="1" as="geometry">
            <mxPoint x="1300" y="1200" as="sourcePoint" />
            <mxPoint x="1290" y="1220" as="targetPoint" />
          </mxGeometry>
        </mxCell>
        <mxCell id="zbe0re6iq-kR-Y6KTi55-48" value="&lt;span style=&quot;font-size: 24px;&quot;&gt;Geral:&lt;/span&gt;" style="text;html=1;whiteSpace=wrap;strokeColor=none;fillColor=none;align=center;verticalAlign=middle;rounded=0;" vertex="1" parent="1">
          <mxGeometry x="160" y="110" width="150" height="30" as="geometry" />
        </mxCell>
      </root>
    </mxGraphModel>
  </diagram>
</mxfile>
